<?xml version="1.0" standalone="no"?>
<!DOCTYPE svg PUBLIC "-//W3C//DTD SVG 20010904//EN"
 "http://www.w3.org/TR/2001/REC-SVG-20010904/DTD/svg10.dtd">
<svg version="1.0" xmlns="http://www.w3.org/2000/svg"
 width="512.000000pt" height="512.000000pt" viewBox="0 0 512.000000 512.000000"
 preserveAspectRatio="xMidYMid meet">

<g transform="translate(0.000000,512.000000) scale(0.100000,-0.100000)"
 stroke="none">
<path d="M1673 4161 l-893 -516 0 -261 0 -261 245 -142 c135 -77 248 -141 250
-141 3 0 5 116 5 258 l0 258 513 296 512 296 3 -852 2 -851 122 -70 c67 -39
129 -70 138 -70 9 0 71 31 138 70 l122 70 2 851 3 852 513 -296 512 -296 0
-258 c0 -142 2 -258 5 -258 2 0 115 64 250 141 l245 142 0 261 0 261 -892 515
c-490 283 -894 516 -897 516 -3 1 -408 -231 -898 -515z" fill="#333333"/>
<path d="M780 2323 l0 -748 772 -445 c425 -245 828 -477 895 -517 l123 -71
123 71 c67 40 470 272 895 517 l772 445 0 748 0 747 -37 -19 c-21 -10 -132
-74 -248 -140 l-210 -121 -5 -466 -5 -466 -509 -294 c-280 -162 -510 -294
-512 -294 -2 0 -4 207 -4 460 0 253 -2 460 -4 460 -3 0 -59 -31 -125 -70 -66
-38 -125 -70 -131 -70 -6 0 -65 32 -131 70 -66 39 -122 70 -125 70 -2 0 -4
-207 -4 -460 0 -253 -2 -460 -4 -460 -2 0 -232 132 -512 294 l-509 294 -5 466
-5 466 -210 121 c-116 66 -227 130 -247 140 l-38 19 0 -747z" fill="#1D7AC1"/>
</g>
</svg>
